<svg width="32" height="32" viewBox="0 0 32 32" fill="none" xmlns="http://www.w3.org/2000/svg">
<g clip-path="url(#clip0_1901_4396)">
<path d="M0 12.8C0 8.31958 0 6.07937 0.871948 4.36808C1.63893 2.86278 2.86278 1.63893 4.36808 0.871948C6.07937 0 8.31958 0 12.8 0H19.2C23.6804 0 25.9206 0 27.6319 0.871948C29.1372 1.63893 30.3611 2.86278 31.1281 4.36808C32 6.07937 32 8.31958 32 12.8V19.2C32 23.6804 32 25.9206 31.1281 27.6319C30.3611 29.1372 29.1372 30.3611 27.6319 31.1281C25.9206 32 23.6804 32 19.2 32H12.8C8.31958 32 6.07937 32 4.36808 31.1281C2.86278 30.3611 1.63893 29.1372 0.871948 27.6319C0 25.9206 0 23.6804 0 19.2V12.8Z" fill="white"/>
<path d="M0 12.8C0 8.31958 0 6.07937 0.871948 4.36808C1.63893 2.86278 2.86278 1.63893 4.36808 0.871948C6.07937 0 8.31958 0 12.8 0H19.2C23.6804 0 25.9206 0 27.6319 0.871948C29.1372 1.63893 30.3611 2.86278 31.1281 4.36808C32 6.07937 32 8.31958 32 12.8V19.2C32 23.6804 32 25.9206 31.1281 27.6319C30.3611 29.1372 29.1372 30.3611 27.6319 31.1281C25.9206 32 23.6804 32 19.2 32H12.8C8.31958 32 6.07937 32 4.36808 31.1281C2.86278 30.3611 1.63893 29.1372 0.871948 27.6319C0 25.9206 0 23.6804 0 19.2V12.8Z" fill="url(#paint0_linear_1901_4396)"/>
<path fill-rule="evenodd" clip-rule="evenodd" d="M16 2.03885C8.28948 2.03885 2.03885 8.28948 2.03885 16C2.03885 23.7106 8.28948 29.9612 16 29.9612C23.7106 29.9612 29.9612 23.7106 29.9612 16C29.9612 8.28948 23.7106 2.03885 16 2.03885ZM1.96118 16C1.96118 8.24658 8.24658 1.96118 16 1.96118C23.7535 1.96118 30.0389 8.24658 30.0389 16C30.0389 23.7535 23.7535 30.0389 16 30.0389C8.24658 30.0389 1.96118 23.7535 1.96118 16Z" fill="#D0D5DD"/>
<path fill-rule="evenodd" clip-rule="evenodd" d="M16 12.0779C13.8338 12.0779 12.0777 13.834 12.0777 16.0002C12.0777 18.1665 13.8338 19.9226 16 19.9226C18.1662 19.9226 19.9223 18.1665 19.9223 16.0002C19.9223 13.834 18.1662 12.0779 16 12.0779ZM12 16.0002C12 13.7911 13.7909 12.0002 16 12.0002C18.2091 12.0002 20 13.7911 20 16.0002C20 18.2094 18.2091 20.0002 16 20.0002C13.7909 20.0002 12 18.2094 12 16.0002Z" fill="#D0D5DD"/>
<path fill-rule="evenodd" clip-rule="evenodd" d="M16 13.3201C14.52 13.3201 13.3203 14.5198 13.3203 15.9997C13.3203 17.4796 14.52 18.6793 16 18.6793C17.4799 18.6793 18.6796 17.4796 18.6796 15.9997C18.6796 14.5198 17.4799 13.3201 16 13.3201ZM13.2427 15.9997C13.2427 14.4769 14.4772 13.2424 16 13.2424C17.5228 13.2424 18.7572 14.4769 18.7572 15.9997C18.7572 17.5225 17.5228 18.757 16 18.757C14.4772 18.757 13.2427 17.5225 13.2427 15.9997Z" fill="#D0D5DD"/>
<path d="M15.9612 0H16.0389V32H15.9612V0Z" fill="#D0D5DD"/>
<path d="M32 15.9609L32 16.0386L-3.39506e-09 16.0386L0 15.9609L32 15.9609Z" fill="#D0D5DD"/>
<path d="M26.6021 0H26.6797V32H26.6021V0Z" fill="#D0D5DD"/>
<path d="M10.6409 0H10.7185V32H10.6409V0Z" fill="#D0D5DD"/>
<path d="M21.2815 0H21.3592V32H21.2815V0Z" fill="#D0D5DD"/>
<path d="M5.32031 0H5.39798V32H5.32031V0Z" fill="#D0D5DD"/>
<path d="M32 26.6016L32 26.6792L-3.39506e-09 26.6792L0 26.6016L32 26.6016Z" fill="#D0D5DD"/>
<path d="M32 10.6406L32 10.7183L-3.39506e-09 10.7183L0 10.6406L32 10.6406Z" fill="#D0D5DD"/>
<path d="M32 21.2812L32 21.3589L-3.39506e-09 21.3589L0 21.2812L32 21.2812Z" fill="#D0D5DD"/>
<path d="M32 5.32031L32 5.39798L-3.39506e-09 5.39798L0 5.32031L32 5.32031Z" fill="#D0D5DD"/>
<mask id="mask0_1901_4396" style="mask-type:luminance" maskUnits="userSpaceOnUse" x="6" y="8" width="19" height="22">
<path d="M10.95 24.8808C11.4368 24.3272 12.2146 24.1393 12.8971 24.4136C13.5796 24.6828 14.0212 25.3582 14.0061 26.0946C13.7954 25.4953 13.3387 25.0179 12.7516 24.7843C12.1644 24.5507 11.5121 24.5863 10.95 24.8808ZM16.6608 27.2526C16.3446 26.313 16.7662 25.282 17.6444 24.8351C18.5225 24.3933 19.5914 24.6726 20.1434 25.4953C19.5061 24.9062 18.5777 24.7742 17.81 25.1652C17.0372 25.5563 16.5855 26.3841 16.6658 27.2526H16.6608ZM15.8478 9.03021C11.8935 9.7006 8.95277 13.0932 8.80222 17.146C8.74702 18.6289 9.07321 20.0561 9.70049 21.3105C8.82229 21.407 8.13981 22.1586 8.13981 23.0677C8.13981 23.2252 8.15989 23.3826 8.20003 23.5299C8.26527 23.5147 8.50113 23.4588 8.77713 23.4791C9.50979 23.54 10.1321 24.0632 10.3227 24.7793C9.9514 24.2612 9.3743 23.9362 8.742 23.8803C8.1097 23.8295 7.49246 24.053 7.04082 24.505C6.94045 24.7285 6.88525 24.9773 6.88525 25.2414C6.88525 25.927 7.26664 26.5212 7.82868 26.8158C8.07959 27.476 8.71691 27.9484 9.45961 27.9484C10.0568 27.9484 10.5837 27.6436 10.8998 27.1866C11.221 27.5776 11.7078 27.8315 12.2498 27.8315C12.872 27.8315 13.424 27.5014 13.7301 27.0037C13.7201 27.085 13.7151 27.1713 13.7151 27.2577C13.7151 28.3547 14.5933 29.2434 15.6772 29.2434C16.4099 29.2434 17.0472 28.8371 17.3834 28.2378C17.7046 28.4664 18.091 28.5984 18.5125 28.5984C19.2753 28.5984 19.9377 28.1566 20.2639 27.5116C20.5951 27.7757 21.0166 27.928 21.4683 27.928C22.5522 27.928 23.4304 27.0393 23.4304 25.9423C23.4304 25.2008 23.0289 24.5507 22.4318 24.2104C23.4454 23.4131 24.2935 22.3719 24.8756 21.1327C24.0225 22.0571 22.9787 22.7325 21.8446 23.1388C21.5987 22.7579 21.2123 22.4837 20.7557 22.3923C20.7557 22.3821 20.7557 22.3719 20.7456 22.3618C20.6854 22.2602 20.7055 22.2348 20.5098 22.2094C20.5098 22.2094 20.3141 21.9352 20.1685 21.7777L20.4646 20.0104H20.8259C20.8259 20.0104 22.7128 16.2369 20.3944 13.9413L20.585 13.4639L20.3291 13.2658C20.3291 13.2658 21.0869 10.3608 21.122 9.88343C21.1571 9.40604 21.679 9.42635 21.679 9.42635C21.679 9.42635 21.5536 9.26891 21.2826 9.35525C21.0116 9.44159 20.9263 8.83214 20.6653 8.63407C20.4044 8.436 20.7557 9.04037 20.7205 9.09623C20.6854 9.15718 20.4546 8.92864 20.304 8.9134C20.1535 8.89817 20.3592 9.09623 20.5298 9.26383C20.7055 9.43143 20.2488 9.34001 20.1485 9.38064C19.9126 9.47714 20.6051 9.44666 20.6202 9.65997C20.6503 10.2643 19.4058 13.1846 19.3455 13.2506C19.2803 13.3268 19.1097 13.2405 19.2 13.0475C19.2903 12.8494 19.5463 12.4837 19.4208 12.3314C19.2954 12.179 18.7634 11.854 18.7634 11.854L18.8437 11.534L18.0759 11.6407C18.0107 11.6 17.7949 11.3258 17.4085 11.2394C17.4085 11.2394 17.539 10.823 17.1425 10.4116C17.3081 11.2394 16.164 11.1785 15.7224 12.0673C14.5782 14.3832 17.9705 14.4949 18.2917 14.053C18.2917 14.053 18.6229 13.9261 18.5376 14.246C18.4573 14.5609 17.9103 15.0891 17.835 15.3583C17.7598 15.6274 17.6393 16.3689 17.4486 16.435C17.2529 16.501 16.8866 16.5568 16.8816 16.6381C16.8816 16.7194 17.1726 16.7092 17.2881 16.7092C17.4035 16.7092 17.273 16.9327 17.1726 17.0495C17.0723 17.1612 17.0823 17.3593 17.3884 17.0596C17.6945 16.7651 17.539 17.1866 17.539 17.3542C17.539 17.5218 17.6895 17.2933 17.7648 17.085C17.8451 16.8768 18.0057 16.9225 18.0107 17.0088C18.0207 17.0952 18.1964 17.2425 18.1462 16.887C18.096 16.5314 17.9304 16.5264 18.0559 16.2572C18.1361 16.0845 18.2917 15.7646 18.5577 15.5513C18.6129 15.6325 18.648 15.7036 18.648 15.7036L19.1348 15.338C19.1348 15.338 19.7219 16.1556 19.2753 17.3034C19.2753 17.3034 19.0294 17.7097 18.914 17.8367L19.1348 20.0154H19.6015C19.5814 20.2287 19.5262 20.9245 19.6266 21.6406C19.6266 21.6406 19.4308 21.7016 19.461 21.8336C19.4961 21.9606 20.0481 22.3415 20.2037 22.3618C19.5362 22.443 18.9842 22.9154 18.7885 23.5502H18.7032C18.3971 23.2506 17.9856 23.0677 17.5289 23.0677C17.3182 23.0677 17.1124 23.1084 16.9267 23.1795L16.8565 23.1541C15.612 21.9809 13.69 21.9707 12.4354 23.1287C13.4692 21.5289 15.8478 21.5187 16.8665 23.1388C16.8816 23.0017 16.8816 22.8747 16.8816 22.7325C16.8816 19.8885 12.4053 18.8473 10.4582 21.3918C10.5937 21.0769 11.0203 20.0307 12.591 19.4822C12.0942 18.5375 11.7931 17.4862 11.7178 16.3791C11.5171 13.3166 13.138 10.4269 15.8328 9.02513L15.8478 9.03021Z" fill="white"/>
</mask>
<g mask="url(#mask0_1901_4396)">
<path d="M24.8755 8.44116H6.89014V29.2435H24.8755V8.44116Z" fill="url(#paint1_linear_1901_4396)"/>
</g>
<mask id="mask1_1901_4396" style="mask-type:luminance" maskUnits="userSpaceOnUse" x="19" y="2" width="6" height="8">
<path d="M21.3176 2.81754L21.6036 3.72154C21.6137 3.75709 21.6438 3.77741 21.6839 3.77741H22.6223C22.6575 3.77741 22.6876 3.79772 22.7026 3.83328C22.7127 3.86883 22.7026 3.90438 22.6725 3.92469L21.9148 4.47827C21.8846 4.49858 21.8746 4.53921 21.8846 4.56969L22.1757 5.47369C22.1857 5.50925 22.1757 5.5448 22.1456 5.56511C22.1155 5.58543 22.0753 5.58543 22.0502 5.56511L21.2925 5.00645C21.2624 4.98614 21.2222 4.98614 21.1971 5.00645L21.1821 5.01661C21.438 5.34673 22.5922 7.0227 21.6086 9.29795C22.9686 8.01304 23.5256 6.22534 23.6711 5.67176L23.2948 5.94601C23.2948 5.94601 23.2446 5.96125 23.2245 5.94601C23.2044 5.93078 23.1944 5.9003 23.2044 5.87491L23.4202 5.20452C23.4303 5.17913 23.4202 5.14866 23.4002 5.13342L22.8381 4.72205C22.8381 4.72205 22.808 4.67634 22.818 4.65095C22.8281 4.62555 22.8481 4.61032 22.8783 4.61032H23.5708C23.5959 4.61032 23.621 4.59508 23.631 4.56969L23.8468 3.8993C23.8568 3.8739 23.8769 3.85867 23.907 3.85867C23.9371 3.85867 23.9572 3.8739 23.9672 3.8993L24.183 4.56969C24.193 4.59508 24.2131 4.61032 24.2432 4.61032H24.9357C24.9608 4.61032 24.9859 4.62555 24.996 4.65095C25.006 4.67634 24.996 4.70173 24.9759 4.72205L24.4138 5.13342C24.4138 5.13342 24.3837 5.17913 24.3938 5.20452L24.6096 5.87491C24.6196 5.9003 24.6095 5.9257 24.5895 5.94601C24.5694 5.96125 24.5393 5.96125 24.5192 5.94601L23.9572 5.52956C23.9572 5.52956 23.9221 5.51432 23.902 5.5194C23.5607 7.03285 22.5169 9.01355 21.2072 9.79566C21.7843 8.8815 22.3463 6.77384 21.0817 5.10295L20.4645 5.56003C20.4344 5.58035 20.3992 5.58035 20.3691 5.56003C20.339 5.53972 20.329 5.49909 20.339 5.46862L20.6301 4.56461C20.6401 4.52906 20.6301 4.49351 20.6 4.47319L19.8422 3.91961C19.8121 3.8993 19.8021 3.85867 19.8121 3.8282C19.8221 3.79265 19.8523 3.77233 19.8924 3.77233H20.8308C20.8659 3.77233 20.8961 3.75202 20.9111 3.71647L21.1971 2.81246C21.2072 2.77691 21.2373 2.75659 21.2774 2.75659C21.3176 2.75659 21.3427 2.77691 21.3577 2.81246" fill="white"/>
</mask>
<g mask="url(#mask1_1901_4396)">
<path d="M24.9758 2.7616H19.7668V9.81083H24.9758V2.7616Z" fill="url(#paint2_linear_1901_4396)"/>
</g>
</g>
<path d="M12.8 0.1H19.2C21.4419 0.1 23.1172 0.100078 24.4462 0.208661C25.7741 0.31715 26.7473 0.533455 27.5865 0.961049C29.073 1.71845 30.2816 2.92699 31.039 4.41348C31.4665 5.25268 31.6828 6.22593 31.7913 7.55376C31.8999 8.88276 31.9 10.5581 31.9 12.8V19.2C31.9 21.4419 31.8999 23.1172 31.7913 24.4462C31.6828 25.7741 31.4665 26.7473 31.039 27.5865C30.2816 29.073 29.073 30.2816 27.5865 31.039C26.7473 31.4665 25.7741 31.6828 24.4462 31.7913C23.1172 31.8999 21.4419 31.9 19.2 31.9H12.8C10.5581 31.9 8.88276 31.8999 7.55376 31.7913C6.22593 31.6828 5.25268 31.4665 4.41348 31.039C2.92699 30.2816 1.71845 29.073 0.961049 27.5865C0.533455 26.7473 0.31715 25.7741 0.208661 24.4462C0.100078 23.1172 0.1 21.4419 0.1 19.2V12.8C0.1 10.5581 0.100078 8.88276 0.208661 7.55376C0.31715 6.22593 0.533455 5.25268 0.961049 4.41348C1.71845 2.92699 2.92699 1.71845 4.41348 0.961049C5.25268 0.533455 6.22593 0.31715 7.55376 0.208661C8.88276 0.100078 10.5581 0.1 12.8 0.1Z" stroke="#D0D5DD" stroke-width="0.2"/>
<defs>
<linearGradient id="paint0_linear_1901_4396" x1="16" y1="0" x2="16" y2="32" gradientUnits="userSpaceOnUse">
<stop stop-color="white"/>
<stop offset="1" stop-color="#D0D5DD"/>
</linearGradient>
<linearGradient id="paint1_linear_1901_4396" x1="17.9202" y1="31.6" x2="13.1482" y2="2.40027" gradientUnits="userSpaceOnUse">
<stop stop-color="#7F55D9"/>
<stop offset="1" stop-color="#DA17B8"/>
</linearGradient>
<linearGradient id="paint2_linear_1901_4396" x1="26.406" y1="31.5527" x2="21.6288" y2="2.35301" gradientUnits="userSpaceOnUse">
<stop stop-color="#6A00B7"/>
<stop offset="1" stop-color="#DA17B8"/>
</linearGradient>
<clipPath id="clip0_1901_4396">
<path d="M0 12.8C0 8.31958 0 6.07937 0.871948 4.36808C1.63893 2.86278 2.86278 1.63893 4.36808 0.871948C6.07937 0 8.31958 0 12.8 0H19.2C23.6804 0 25.9206 0 27.6319 0.871948C29.1372 1.63893 30.3611 2.86278 31.1281 4.36808C32 6.07937 32 8.31958 32 12.8V19.2C32 23.6804 32 25.9206 31.1281 27.6319C30.3611 29.1372 29.1372 30.3611 27.6319 31.1281C25.9206 32 23.6804 32 19.2 32H12.8C8.31958 32 6.07937 32 4.36808 31.1281C2.86278 30.3611 1.63893 29.1372 0.871948 27.6319C0 25.9206 0 23.6804 0 19.2V12.8Z" fill="white"/>
</clipPath>
</defs>
</svg>
