<svg width="19" height="28" viewBox="0 0 19 28" fill="none" xmlns="http://www.w3.org/2000/svg">
<g id="Group">
<g id="Clip path group">
<mask id="mask0_2127_10696" style="mask-type:luminance" maskUnits="userSpaceOnUse" x="0" y="6" width="19" height="22">
<g id="clippath">
<path id="SVGID" d="M4.45003 22.8808C4.9368 22.3272 5.71462 22.1393 6.3971 22.4136C7.07958 22.6827 7.52119 23.3582 7.50613 24.0946C7.29537 23.4953 6.83871 23.0179 6.25157 22.7843C5.66444 22.5507 5.01207 22.5862 4.45003 22.8808ZM10.1608 25.2526C9.84463 24.313 10.2662 23.282 11.1444 22.8351C12.0225 22.3933 13.0914 22.6726 13.6434 23.4953C13.0061 22.9062 12.0777 22.7742 11.31 23.1652C10.5372 23.5563 10.0855 24.3841 10.1658 25.2526H10.1608ZM9.34783 7.0302C5.39346 7.70059 2.45277 11.0932 2.30222 15.146C2.24702 16.6289 2.57321 18.056 3.20049 19.3105C2.32229 19.407 1.63981 20.1586 1.63981 21.0677C1.63981 21.2252 1.65989 21.3826 1.70003 21.5299C1.76527 21.5146 2.00113 21.4588 2.27713 21.4791C3.00979 21.54 3.63205 22.0631 3.82275 22.7792C3.4514 22.2612 2.8743 21.9362 2.242 21.8803C1.6097 21.8295 0.992461 22.053 0.540819 22.505C0.440455 22.7284 0.385254 22.9773 0.385254 23.2414C0.385254 23.927 0.76664 24.5212 1.32868 24.8158C1.57959 25.476 2.21691 25.9483 2.95961 25.9483C3.55678 25.9483 4.0837 25.6436 4.39984 25.1865C4.72101 25.5776 5.20778 25.8315 5.74975 25.8315C6.37201 25.8315 6.92402 25.5014 7.23013 25.0037C7.22009 25.085 7.21508 25.1713 7.21508 25.2576C7.21508 26.3546 8.09327 27.2434 9.17721 27.2434C9.90987 27.2434 10.5472 26.8371 10.8834 26.2378C11.2046 26.4664 11.591 26.5984 12.0125 26.5984C12.7753 26.5984 13.4377 26.1566 13.7639 25.5116C14.0951 25.7757 14.5166 25.928 14.9683 25.928C16.0522 25.928 16.9304 25.0393 16.9304 23.9423C16.9304 23.2008 16.5289 22.5507 15.9318 22.2104C16.9454 21.4131 17.7935 20.3719 18.3756 19.1327C17.5225 20.0571 16.4787 20.7325 15.3446 21.1388C15.0987 20.7579 14.7123 20.4837 14.2557 20.3922C14.2557 20.3821 14.2557 20.3719 14.2456 20.3618C14.1854 20.2602 14.2055 20.2348 14.0098 20.2094C14.0098 20.2094 13.8141 19.9352 13.6685 19.7777L13.9646 18.0103H14.3259C14.3259 18.0103 16.2128 14.2369 13.8944 11.9413L14.085 11.4639L13.8291 11.2658C13.8291 11.2658 14.5869 8.36082 14.622 7.88342C14.6571 7.40602 15.179 7.42634 15.179 7.42634C15.179 7.42634 15.0536 7.2689 14.7826 7.35523C14.5116 7.44157 14.4263 6.83213 14.1653 6.63406C13.9044 6.43599 14.2557 7.04036 14.2205 7.09622C14.1854 7.15717 13.9546 6.92862 13.804 6.91339C13.6535 6.89815 13.8592 7.09622 14.0298 7.26382C14.2055 7.43142 13.7488 7.34 13.6485 7.38063C13.4126 7.47712 14.1051 7.44665 14.1202 7.65996C14.1503 8.26432 12.9058 11.1846 12.8455 11.2506C12.7803 11.3268 12.6097 11.2404 12.7 11.0474C12.7903 10.8494 13.0463 10.4837 12.9208 10.3314C12.7954 10.179 12.2634 9.85395 12.2634 9.85395L12.3437 9.534L11.5759 9.64065C11.5107 9.60002 11.2949 9.32577 10.9085 9.23943C10.9085 9.23943 11.039 8.82298 10.6425 8.4116C10.8081 9.23943 9.66398 9.17849 9.22237 10.0673C8.07821 12.3831 11.4705 12.4949 11.7917 12.053C11.7917 12.053 12.1229 11.9261 12.0376 12.246C11.9573 12.5609 11.4103 13.0891 11.335 13.3583C11.2598 13.6274 11.1393 14.3689 10.9486 14.4349C10.7529 14.501 10.3866 14.5568 10.3816 14.6381C10.3816 14.7193 10.6726 14.7092 10.7881 14.7092C10.9035 14.7092 10.773 14.9327 10.6726 15.0495C10.5723 15.1612 10.5823 15.3593 10.8884 15.0596C11.1945 14.7651 11.039 15.1866 11.039 15.3542C11.039 15.5218 11.1895 15.2932 11.2648 15.085C11.3451 14.8768 11.5057 14.9225 11.5107 15.0088C11.5207 15.0952 11.6964 15.2425 11.6462 14.8869C11.596 14.5314 11.4304 14.5264 11.5559 14.2572C11.6361 14.0845 11.7917 13.7645 12.0577 13.5512C12.1129 13.6325 12.148 13.7036 12.148 13.7036L12.6348 13.3379C12.6348 13.3379 13.2219 14.1556 12.7753 15.3034C12.7753 15.3034 12.5294 15.7097 12.414 15.8367L12.6348 18.0154H13.1015C13.0814 18.2287 13.0262 18.9245 13.1266 19.6406C13.1266 19.6406 12.9309 19.7015 12.961 19.8336C12.9961 19.9606 13.5481 20.3415 13.7037 20.3618C13.0362 20.443 12.4842 20.9154 12.2885 21.5502H12.2032C11.8971 21.2505 11.4856 21.0677 11.0289 21.0677C10.8182 21.0677 10.6124 21.1083 10.4267 21.1794L10.3565 21.1541C9.11197 19.9809 7.18999 19.9707 5.93543 21.1287C6.96918 19.5289 9.34783 19.5187 10.3665 21.1388C10.3816 21.0017 10.3816 20.8747 10.3816 20.7325C10.3816 17.8885 5.90532 16.8473 3.95824 19.3917C4.09373 19.0769 4.52028 18.0307 6.09099 17.4822C5.59419 16.5375 5.29309 15.4862 5.21782 14.3791C5.01709 11.3166 6.63798 8.42684 9.33277 7.02512L9.34783 7.0302Z" fill="white"/>
</g>
</mask>
<g mask="url(#mask0_2127_10696)">
<g id="Group_2">
<path id="Vector" d="M18.3756 6.4411H0.390198V27.2434H18.3756V6.4411Z" fill="url(#paint0_linear_2127_10696)"/>
</g>
</g>
</g>
<g id="Clip path group_2">
<mask id="mask1_2127_10696" style="mask-type:luminance" maskUnits="userSpaceOnUse" x="13" y="0" width="6" height="8">
<g id="clippath-1">
<path id="SVGID_2" d="M14.8177 0.817536L15.1037 1.72154C15.1138 1.75709 15.1439 1.77741 15.184 1.77741H16.1224C16.1576 1.77741 16.1877 1.79772 16.2027 1.83328C16.2128 1.86883 16.2027 1.90438 16.1726 1.92469L15.4149 2.47827C15.3848 2.49858 15.3747 2.53921 15.3848 2.56969L15.6758 3.47369C15.6859 3.50925 15.6758 3.5448 15.6457 3.56511C15.6156 3.58543 15.5755 3.58543 15.5504 3.56511L14.7926 3.00645C14.7625 2.98614 14.7224 2.98614 14.6973 3.00645L14.6822 3.01661C14.9381 3.34673 16.0923 5.0227 15.1088 7.29795C16.4687 6.01304 17.0257 4.22534 17.1713 3.67176L16.7949 3.94601C16.7949 3.94601 16.7447 3.96125 16.7246 3.94601C16.7046 3.93078 16.6945 3.9003 16.7046 3.87491L16.9203 3.20452C16.9304 3.17913 16.9204 3.14866 16.9003 3.13342L16.3382 2.72205C16.3382 2.72205 16.3081 2.67634 16.3182 2.65095C16.3282 2.62555 16.3483 2.61032 16.3784 2.61032H17.0709C17.096 2.61032 17.1211 2.59508 17.1311 2.56969L17.3469 1.8993C17.3569 1.8739 17.377 1.85867 17.4071 1.85867C17.4372 1.85867 17.4573 1.8739 17.4673 1.8993L17.6831 2.56969C17.6932 2.59508 17.7132 2.61032 17.7433 2.61032H18.4359C18.4609 2.61032 18.486 2.62555 18.4961 2.65095C18.5061 2.67634 18.4961 2.70173 18.476 2.72205L17.914 3.13342C17.914 3.13342 17.8839 3.17913 17.8939 3.20452L18.1097 3.87491C18.1197 3.9003 18.1097 3.9257 18.0896 3.94601C18.0695 3.96125 18.0394 3.96125 18.0193 3.94601L17.4573 3.52956C17.4573 3.52956 17.4222 3.51432 17.4021 3.5194C17.0609 5.03285 16.0171 7.01355 14.7073 7.79566C15.2844 6.8815 15.8464 4.77384 14.5819 3.10295L13.9646 3.56003C13.9345 3.58035 13.8994 3.58035 13.8693 3.56003C13.8392 3.53972 13.8291 3.49909 13.8392 3.46862L14.1302 2.56461C14.1402 2.52906 14.1302 2.49351 14.1001 2.47319L13.3423 1.91961C13.3122 1.8993 13.3022 1.85867 13.3122 1.8282C13.3223 1.79265 13.3524 1.77233 13.3925 1.77233H14.3309C14.3661 1.77233 14.3962 1.75202 14.4112 1.71647L14.6973 0.812457C14.7073 0.776907 14.7374 0.756592 14.7776 0.756592C14.8177 0.756592 14.8428 0.776907 14.8579 0.812457" fill="white"/>
</g>
</mask>
<g mask="url(#mask1_2127_10696)">
<g id="Group_3">
<path id="Vector_2" d="M18.476 0.761559H13.2671V7.81079H18.476V0.761559Z" fill="url(#paint1_linear_2127_10696)"/>
</g>
</g>
</g>
</g>
<defs>
<linearGradient id="paint0_linear_2127_10696" x1="11.4203" y1="29.6" x2="6.64828" y2="0.400206" gradientUnits="userSpaceOnUse">
<stop stop-color="#7F55D9"/>
<stop offset="1" stop-color="#DA17B8"/>
</linearGradient>
<linearGradient id="paint1_linear_2127_10696" x1="19.9062" y1="29.5527" x2="15.1291" y2="0.352972" gradientUnits="userSpaceOnUse">
<stop stop-color="#6A00B7"/>
<stop offset="1" stop-color="#DA17B8"/>
</linearGradient>
</defs>
</svg>
