<svg width="256" height="256" viewBox="0 0 256 256" fill="none" xmlns="http://www.w3.org/2000/svg">
<g clip-path="url(#clip0_1901_4432)">
<rect width="256" height="256" rx="20" fill="white"/>
<rect width="256" height="256" rx="20" fill="url(#paint0_linear_1901_4432)"/>
<path fill-rule="evenodd" clip-rule="evenodd" d="M128 16.3107C66.3156 16.3107 16.3106 66.3157 16.3106 128C16.3106 189.684 66.3156 239.689 128 239.689C189.684 239.689 239.689 189.684 239.689 128C239.689 66.3157 189.684 16.3107 128 16.3107ZM15.6892 128C15.6892 65.9725 65.9724 15.6893 128 15.6893C190.027 15.6893 240.311 65.9725 240.311 128C240.311 190.027 190.027 240.311 128 240.311C65.9724 240.311 15.6892 190.027 15.6892 128Z" fill="#D0D5DD"/>
<path fill-rule="evenodd" clip-rule="evenodd" d="M128 96.6232C110.67 96.6232 96.6214 110.672 96.6214 128.002C96.6214 145.332 110.67 159.38 128 159.38C145.33 159.38 159.379 145.332 159.379 128.002C159.379 110.672 145.33 96.6232 128 96.6232ZM96 128.002C96 110.329 110.327 96.0018 128 96.0018C145.673 96.0018 160 110.329 160 128.002C160 145.675 145.673 160.002 128 160.002C110.327 160.002 96 145.675 96 128.002Z" fill="#D0D5DD"/>
<path fill-rule="evenodd" clip-rule="evenodd" d="M128 106.561C116.161 106.561 106.563 116.158 106.563 127.998C106.563 139.837 116.161 149.434 128 149.434C139.839 149.434 149.437 139.837 149.437 127.998C149.437 116.158 139.839 106.561 128 106.561ZM105.942 127.998C105.942 115.815 115.817 105.939 128 105.939C140.182 105.939 150.058 115.815 150.058 127.998C150.058 140.18 140.182 150.056 128 150.056C115.817 150.056 105.942 140.18 105.942 127.998Z" fill="#D0D5DD"/>
<path d="M127.689 0H128.311V256H127.689V0Z" fill="#D0D5DD"/>
<path d="M256 127.688L256 128.309L-2.71605e-08 128.309L0 127.687L256 127.688Z" fill="#D0D5DD"/>
<path d="M212.816 0H213.437V256H212.816V0Z" fill="#D0D5DD"/>
<path d="M85.1262 0H85.7476V256H85.1262V0Z" fill="#D0D5DD"/>
<path d="M170.252 0H170.874V256H170.252V0Z" fill="#D0D5DD"/>
<path d="M42.563 0H43.1843V256H42.563V0Z" fill="#D0D5DD"/>
<path d="M256 212.812L256 213.434L-2.71605e-08 213.434L0 212.812L256 212.812Z" fill="#D0D5DD"/>
<path d="M256 85.125L256 85.7464L-2.71605e-08 85.7463L0 85.125L256 85.125Z" fill="#D0D5DD"/>
<path d="M256 170.25L256 170.871L-2.71605e-08 170.871L0 170.25L256 170.25Z" fill="#D0D5DD"/>
<path d="M256 42.5625L256 43.1839L-2.71605e-08 43.1838L0 42.5625L256 42.5625Z" fill="#D0D5DD"/>
<mask id="mask0_1901_4432" style="mask-type:luminance" maskUnits="userSpaceOnUse" x="55" y="68" width="145" height="166">
<path d="M87.6002 199.046C91.4944 194.618 97.717 193.115 103.177 195.309C108.637 197.462 112.17 202.866 112.049 208.757C110.363 203.963 106.71 200.143 102.013 198.275C97.3155 196.406 92.0966 196.69 87.6002 199.046ZM133.286 218.02C130.757 210.504 134.129 202.256 141.155 198.681C148.18 195.146 156.731 197.381 161.148 203.963C156.049 199.25 148.622 198.193 142.48 201.322C136.297 204.45 132.684 211.073 133.326 218.02H133.286ZM126.783 72.2416C95.1476 77.6047 71.6221 104.745 70.4178 137.168C69.9762 149.031 72.5856 160.448 77.6039 170.484C70.5784 171.256 65.1185 177.269 65.1185 184.542C65.1185 185.801 65.2791 187.061 65.6003 188.239C66.1222 188.117 68.009 187.67 70.217 187.833C76.0783 188.32 81.0564 192.505 82.582 198.234C79.6112 194.09 74.9944 191.489 69.936 191.042C64.8776 190.636 59.9397 192.424 56.3266 196.04C55.5236 197.828 55.082 199.818 55.082 201.931C55.082 207.416 58.1331 212.17 62.6295 214.526C64.6368 219.808 69.7353 223.587 75.6769 223.587C80.4542 223.587 84.6696 221.149 87.1988 217.492C89.7681 220.621 93.6623 222.652 97.998 222.652C102.976 222.652 107.392 220.011 109.841 216.03C109.761 216.68 109.721 217.37 109.721 218.061C109.721 226.837 116.746 233.947 125.418 233.947C131.279 233.947 136.377 230.697 139.067 225.903C141.637 227.731 144.728 228.787 148.1 228.787C154.202 228.787 159.502 225.253 162.111 220.093C164.761 222.205 168.133 223.424 171.746 223.424C180.418 223.424 187.443 216.314 187.443 207.538C187.443 201.606 184.231 196.406 179.454 193.683C187.564 187.305 194.348 178.975 199.005 169.062C192.18 176.456 183.83 181.86 174.757 185.111C172.79 182.063 169.699 179.869 166.045 179.138C166.045 179.057 166.045 178.975 165.965 178.894C165.483 178.082 165.644 177.878 164.078 177.675C164.078 177.675 162.512 175.481 161.348 174.222L163.717 160.083H166.607C166.607 160.083 181.702 129.895 163.155 111.53L164.68 107.711L162.633 106.127C162.633 106.127 168.695 82.8865 168.976 79.0673C169.257 75.2482 173.432 75.4107 173.432 75.4107C173.432 75.4107 172.429 74.1512 170.261 74.8419C168.093 75.5326 167.41 70.657 165.323 69.0725C163.235 67.4879 166.045 72.3228 165.764 72.7698C165.483 73.2573 163.637 71.429 162.432 71.3071C161.228 71.1852 162.874 72.7698 164.239 74.1105C165.644 75.4513 161.991 74.72 161.188 75.045C159.301 75.817 164.841 75.5732 164.961 77.2796C165.202 82.1146 155.246 105.477 154.764 106.005C154.242 106.614 152.877 105.923 153.6 104.38C154.323 102.795 156.37 99.8697 155.367 98.6508C154.363 97.4319 150.107 94.8316 150.107 94.8316L150.75 92.272L144.607 93.1252C144.086 92.8001 142.359 90.6061 139.268 89.9154C139.268 89.9154 140.312 86.5838 137.14 83.2928C138.465 89.9154 129.312 89.4279 125.779 96.5381C116.626 115.065 143.764 115.959 146.334 112.424C146.334 112.424 148.983 111.408 148.301 113.968C147.658 116.487 143.283 120.713 142.68 122.866C142.078 125.019 141.115 130.951 139.589 131.479C138.023 132.008 135.093 132.455 135.053 133.105C135.053 133.755 137.381 133.673 138.304 133.673C139.228 133.673 138.184 135.461 137.381 136.396C136.578 137.29 136.659 138.874 139.107 136.477C141.556 134.12 140.312 137.493 140.312 138.833C140.312 140.174 141.516 138.346 142.118 136.68C142.761 135.014 144.045 135.38 144.086 136.071C144.166 136.761 145.571 137.94 145.169 135.096C144.768 132.251 143.443 132.211 144.447 130.057C145.089 128.676 146.334 126.116 148.461 124.41C148.903 125.06 149.184 125.629 149.184 125.629L153.078 122.703C153.078 122.703 157.775 129.245 154.202 138.427C154.202 138.427 152.235 141.678 151.312 142.693L153.078 160.123H156.812C156.651 161.83 156.21 167.396 157.012 173.125C157.012 173.125 155.447 173.612 155.688 174.669C155.969 175.684 160.385 178.732 161.629 178.894C156.29 179.544 151.874 183.323 150.308 188.402H149.626C147.177 186.004 143.885 184.542 140.232 184.542C138.545 184.542 136.899 184.867 135.414 185.436L134.852 185.232C124.896 175.847 109.52 175.766 99.4834 185.029C107.753 172.231 126.783 172.15 134.932 185.111C135.053 184.014 135.053 182.998 135.053 181.86C135.053 159.108 99.2425 150.779 83.6659 171.134C84.7499 168.615 88.1623 160.245 100.728 155.857C96.7535 148.3 94.3447 139.89 93.7425 131.033C92.1367 106.533 105.104 83.4147 126.662 72.2009L126.783 72.2416Z" fill="white"/>
</mask>
<g mask="url(#mask0_1901_4432)">
<path d="M199.004 67.5288H55.1213V233.947H199.004V67.5288Z" fill="url(#paint1_linear_1901_4432)"/>
</g>
<mask id="mask1_1901_4432" style="mask-type:luminance" maskUnits="userSpaceOnUse" x="158" y="22" width="42" height="57">
<path d="M170.542 22.5403L172.83 29.7724C172.91 30.0568 173.151 30.2193 173.472 30.2193H180.98C181.261 30.2193 181.501 30.3818 181.622 30.6662C181.702 30.9506 181.622 31.235 181.381 31.3975L175.319 35.8262C175.078 35.9887 174.998 36.3137 175.078 36.5575L177.407 43.7896C177.487 44.074 177.407 44.3584 177.166 44.5209C176.925 44.6834 176.604 44.6834 176.403 44.5209L170.341 40.0516C170.1 39.8891 169.779 39.8891 169.578 40.0516L169.458 40.1329C171.505 42.7738 180.739 56.1816 172.87 74.3836C183.75 64.1043 188.206 49.8027 189.37 45.3741L186.359 47.5681C186.359 47.5681 185.958 47.69 185.797 47.5681C185.637 47.4462 185.556 47.2024 185.637 46.9993L187.363 41.6362C187.443 41.433 187.363 41.1893 187.202 41.0674L182.706 37.7764C182.706 37.7764 182.465 37.4107 182.545 37.2076C182.626 37.0044 182.786 36.8825 183.027 36.8825H188.567C188.768 36.8825 188.969 36.7606 189.049 36.5575L190.775 31.1944C190.855 30.9912 191.016 30.8694 191.257 30.8694C191.498 30.8694 191.658 30.9912 191.739 31.1944L193.465 36.5575C193.545 36.7606 193.706 36.8825 193.947 36.8825H199.487C199.688 36.8825 199.888 37.0044 199.969 37.2076C200.049 37.4107 199.969 37.6139 199.808 37.7764L195.312 41.0674C195.312 41.0674 195.071 41.433 195.151 41.6362L196.877 46.9993C196.958 47.2024 196.877 47.4056 196.717 47.5681C196.556 47.69 196.315 47.69 196.155 47.5681L191.658 44.2365C191.658 44.2365 191.377 44.1146 191.217 44.1552C188.487 56.2628 180.137 72.1084 169.658 78.3653C174.275 71.052 178.772 54.1907 168.655 40.8236L163.717 44.4803C163.476 44.6428 163.195 44.6428 162.954 44.4803C162.713 44.3177 162.633 43.9927 162.713 43.7489L165.042 36.5169C165.122 36.2325 165.042 35.948 164.801 35.7855L158.739 31.3569C158.498 31.1944 158.418 30.8694 158.498 30.6256C158.578 30.3412 158.819 30.1786 159.14 30.1786H166.648C166.929 30.1786 167.169 30.0161 167.29 29.7317L169.578 22.4997C169.658 22.2153 169.899 22.0527 170.22 22.0527C170.542 22.0527 170.742 22.2153 170.863 22.4997" fill="white"/>
</mask>
<g mask="url(#mask1_1901_4432)">
<path d="M199.808 22.0925H158.136V78.4864H199.808V22.0925Z" fill="url(#paint2_linear_1901_4432)"/>
</g>
</g>
<rect x="0.1" y="0.1" width="255.8" height="255.8" rx="19.9" stroke="#D0D5DD" stroke-width="0.2"/>
<defs>
<linearGradient id="paint0_linear_1901_4432" x1="128" y1="0" x2="128" y2="256" gradientUnits="userSpaceOnUse">
<stop stop-color="white"/>
<stop offset="1" stop-color="#D0D5DD"/>
</linearGradient>
<linearGradient id="paint1_linear_1901_4432" x1="143.362" y1="252.8" x2="105.186" y2="19.2016" gradientUnits="userSpaceOnUse">
<stop stop-color="#7F55D9"/>
<stop offset="1" stop-color="#DA17B8"/>
</linearGradient>
<linearGradient id="paint2_linear_1901_4432" x1="211.25" y1="252.422" x2="173.032" y2="18.8238" gradientUnits="userSpaceOnUse">
<stop stop-color="#6A00B7"/>
<stop offset="1" stop-color="#DA17B8"/>
</linearGradient>
<clipPath id="clip0_1901_4432">
<rect width="256" height="256" rx="20" fill="white"/>
</clipPath>
</defs>
</svg>
